<svg xmlns="http://www.w3.org/2000/svg" width="333" height="333" viewBox="0 0 333 333" version="1.1"><path d="M 251.500 2.332 C 242.719 4.579, 233.775 11.855, 229.166 20.500 C 226.779 24.976, 226.504 26.548, 226.534 35.500 C 226.565 44.394, 226.907 46.286, 229.625 52.603 C 231.307 56.510, 235.165 63.485, 238.199 68.103 C 245.137 78.663, 258.664 94, 261.041 94 C 262.026 94, 266.029 90.532, 269.935 86.292 C 287.954 66.738, 297.896 46.748, 296.743 32.392 C 295.045 11.231, 273.266 -3.239, 251.500 2.332 M 258 2.690 C 243.551 5.103, 235.658 10.670, 229.914 22.500 C 225.124 32.367, 226.177 43.446, 233.240 57.500 C 237.244 65.467, 246.360 78.017, 254.354 86.568 L 260.834 93.500 266.018 88.500 C 273.352 81.427, 285.279 65.251, 289.445 56.730 C 296.617 42.059, 297.516 31.077, 292.349 21.268 C 287.324 11.729, 279.307 5.677, 268.673 3.395 C 262.254 2.017, 262.091 2.007, 258 2.690 M 249.960 19.258 C 243.990 22.825, 241.355 26.969, 240.405 34.284 C 239.064 44.598, 249.986 55.523, 261.471 55.357 C 270.568 55.225, 280.135 48.130, 281.576 40.446 C 284.086 27.069, 274.765 16, 260.994 16 C 256.475 16, 254.373 16.621, 249.960 19.258 M 255.994 17.879 C 248.034 20.477, 244.045 24.406, 242.124 31.541 C 240.123 38.972, 243.971 47.414, 250.992 50.996 C 259.562 55.368, 268.323 54.413, 275.001 48.380 C 284.162 40.104, 282.341 26.219, 271.240 19.714 C 267.728 17.656, 259.654 16.684, 255.994 17.879 M 73 74.034 C 63.954 75.180, 56.011 78.174, 48.137 83.409 C 36.660 91.039, 28.678 102.735, 25.385 116.750 C 19.590 141.412, 37.074 178.017, 71.739 213.800 C 75.904 218.100, 79.535 221, 80.753 221 C 83.043 221, 94.113 209.676, 104.512 196.696 C 133.287 160.778, 143.005 130.641, 133.272 107.500 C 123.547 84.376, 98.995 70.744, 73 74.034 M 73 75.608 C 60.986 77.046, 49.567 82.693, 40.663 91.597 C 32.623 99.636, 28.346 107.582, 26.344 118.199 C 24.620 127.340, 25.407 135.615, 29.156 147.765 C 34.555 165.259, 50.137 189.223, 69.487 209.793 C 80.168 221.147, 80.223 221.168, 85.708 215.846 C 90.179 211.509, 101.779 198.075, 107.595 190.500 C 124.449 168.550, 134.345 147.413, 135.629 130.625 C 137.817 102.021, 114.805 76.909, 85.186 75.579 C 80.409 75.364, 74.925 75.377, 73 75.608 M 203 86.926 C 173.923 94.765, 170.281 96.089, 163.810 101.174 C 158.855 105.067, 153.993 114.871, 154.022 120.910 C 154.070 130.983, 156.717 133.910, 197.225 168.676 C 210.274 179.876, 221.412 189.901, 221.975 190.954 C 223.610 194.009, 223.170 197.536, 220.896 199.595 C 218.899 201.403, 216.139 201.526, 166.919 202 L 115.046 202.500 107.545 211.500 C 103.420 216.450, 100.034 220.853, 100.022 221.285 C 100.010 221.717, 128.688 221.942, 163.750 221.785 C 234.933 221.467, 230.043 221.966, 237.555 214.248 C 242.692 208.971, 245.187 203.543, 245.760 196.398 C 246.175 191.233, 245.845 189.368, 243.719 184.868 C 242.325 181.916, 240.130 178.312, 238.842 176.861 C 237.554 175.409, 223.338 163.567, 207.250 150.545 C 179.310 127.928, 178 126.716, 178 123.473 C 178 118.865, 180.755 116.556, 188.848 114.382 C 228.230 103.799, 247.500 98.189, 247.500 97.309 C 247.500 96.156, 232.817 78.931, 232 79.124 C 231.725 79.190, 218.675 82.700, 203 86.926 M 227.500 82.116 C 224.527 83.051, 215.216 85.512, 188.842 92.333 C 181.331 94.276, 173.292 96.831, 170.979 98.011 C 160.772 103.218, 153.975 114.680, 155.412 124.261 C 155.948 127.834, 157.169 130.084, 160.713 134.026 C 165.022 138.818, 195.736 166.054, 208 175.957 C 211.025 178.400, 215.863 182.725, 218.750 185.569 C 223.372 190.120, 224 191.224, 224 194.797 C 224 197.990, 223.438 199.297, 221.365 200.927 C 218.778 202.963, 217.813 203, 167.591 203 L 116.451 203 109.975 210.586 C 106.414 214.758, 103.350 218.583, 103.167 219.086 C 102.968 219.632, 127.703 220, 164.557 220 L 226.281 220 230.808 217.750 C 240.819 212.774, 246.550 200.643, 243.974 189.878 C 242.149 182.248, 239.084 178.176, 229.182 170.228 C 185.644 135.277, 177.029 127.965, 176.391 125.421 C 175.539 122.026, 177.759 117.171, 180.891 115.581 C 182.326 114.853, 194.750 111.228, 208.500 107.526 C 243.314 98.152, 243.893 97.982, 244.547 96.925 C 245.398 95.547, 233.002 80.856, 231.182 81.086 C 230.807 81.133, 229.150 81.597, 227.500 82.116 M 68.778 98.890 C 55.327 104.289, 47.706 114.817, 47.706 128 C 47.706 139.609, 54.658 150.229, 65.858 155.730 C 70.766 158.139, 72.672 158.498, 80.500 158.485 C 91.733 158.465, 97.835 156.021, 104.534 148.860 C 110.811 142.149, 113.364 136.130, 113.381 128 C 113.407 115.961, 106.551 105.472, 95.209 100.197 C 87.622 96.668, 75.775 96.082, 68.778 98.890 M 71.803 99.337 C 62.827 101.872, 55.116 108.439, 51.227 116.861 C 49.114 121.437, 48.819 123.270, 49.214 129.361 C 49.469 133.288, 50.451 137.989, 51.395 139.810 C 54.162 145.139, 59.991 150.954, 65.437 153.817 C 69.934 156.181, 71.618 156.480, 80.500 156.489 C 92.008 156.502, 96.659 154.823, 103.604 148.150 C 109.952 142.050, 111.500 137.997, 111.500 127.476 C 111.500 118.969, 111.310 118.156, 108.195 113.302 C 102.496 104.425, 93.657 99.267, 82.776 98.470 C 79.134 98.204, 74.529 98.568, 71.803 99.337 M 38.500 250.523 C 35.750 251.287, 32.690 251.932, 31.700 251.956 C 30.711 251.980, 28.348 253.508, 26.450 255.351 C 22.563 259.126, 21.916 263.123, 24.856 265.193 C 26.279 266.196, 26.839 268.246, 27.259 274 C 27.561 278.125, 28.522 283.792, 29.396 286.593 L 30.984 291.685 35.242 290.990 C 41.285 290.004, 47.877 287.212, 52.329 283.753 L 56.157 280.779 57.635 282.890 C 59.462 285.497, 61.610 285.598, 62.927 283.137 C 64.507 280.183, 69.567 278.540, 73.834 279.594 C 76.809 280.329, 77.923 281.348, 79.746 285 C 80.981 287.475, 82.894 290.247, 83.996 291.160 C 85.098 292.073, 86 293.509, 86 294.351 C 86 297.744, 87.867 296.747, 88.497 293.018 C 89.079 289.571, 89.364 289.221, 90.591 290.449 C 94.431 294.289, 98.893 292.585, 98.968 287.250 C 99.005 284.614, 99.849 284.492, 104.530 286.448 C 109.317 288.448, 123.099 290.443, 126.403 289.614 C 128.621 289.057, 129.068 288.445, 128.813 286.314 C 128.354 282.476, 124.470 280.157, 115.343 278.269 L 107.236 276.593 112.040 272.274 C 114.681 269.899, 117.800 265.979, 118.970 263.562 C 120.932 259.508, 120.984 258.896, 119.632 255.662 C 116.561 248.311, 110.304 247.322, 98.870 252.379 C 91.448 255.661, 88.816 258.995, 89.629 264.084 C 90.248 267.955, 89.195 283.529, 88.370 282.703 C 88.125 282.459, 86.847 278.232, 85.531 273.312 C 82.914 263.535, 78.839 253.585, 76.305 250.784 C 74.081 248.327, 71.126 248.548, 70.076 251.250 C 69.595 252.488, 66.648 258.900, 63.528 265.500 L 57.856 277.500 56.545 274.414 C 55.824 272.717, 53.738 270.157, 51.908 268.725 C 48.794 266.288, 48.685 266.005, 50.206 264.310 C 51.099 263.315, 52.141 260.826, 52.521 258.779 C 53.129 255.505, 52.848 254.694, 50.183 252.029 C 46.816 248.662, 45.713 248.520, 38.500 250.523 M 138.821 258.250 C 136.482 263.337, 133.111 270.337, 131.330 273.805 C 128.744 278.838, 128.279 280.603, 129.021 282.555 C 130.072 285.320, 133.715 285.907, 134.653 283.463 C 135.371 281.591, 140.161 279, 142.903 279 C 146.803 279, 150.167 281.378, 151.705 285.220 C 152.545 287.319, 154.216 289.817, 155.419 290.769 C 156.622 291.721, 157.977 293.400, 158.430 294.500 C 159.112 296.157, 159.479 295.655, 160.568 291.576 C 161.684 287.393, 161.661 286.124, 160.415 283.143 C 159.609 281.213, 158.044 276.090, 156.938 271.758 C 155.036 264.309, 150.449 253.451, 147.912 250.394 C 145.166 247.085, 143.154 248.824, 138.821 258.250 M 176.500 250.108 C 174.300 250.591, 170.995 251.280, 169.156 251.639 C 165.084 252.434, 159 258.412, 159 261.618 C 159 262.906, 159.886 264.404, 161 265 C 162.617 265.866, 163 267.094, 163 271.420 C 163 274.363, 163.651 278.960, 164.448 281.635 C 165.244 284.311, 166.149 287.725, 166.460 289.223 C 166.967 291.666, 167.356 291.888, 170.262 291.387 C 177.851 290.079, 189.313 284.543, 191.357 281.198 C 192.034 280.089, 192.458 280.288, 193.382 282.148 C 194.878 285.159, 198.607 285.814, 199.433 283.210 C 200.673 279.305, 208.691 277.694, 212.746 280.535 C 213.951 281.379, 215.844 284.119, 216.952 286.624 C 218.131 289.290, 219.803 291.397, 220.983 291.706 C 222.203 292.025, 223.006 293.076, 223.015 294.367 C 223.028 296.111, 223.208 296.226, 224 295 C 225.150 293.220, 225.318 289.950, 224.250 290.118 C 221.730 290.516, 220.174 289.673, 218.955 287.250 C 216.068 281.508, 213.852 279.106, 210.388 277.963 C 207.388 276.973, 206.189 277.062, 202.964 278.516 C 200.848 279.470, 198.880 280.869, 198.590 281.625 C 197.906 283.409, 195.091 283.401, 194.405 281.614 C 194.113 280.851, 197.098 273.627, 201.038 265.560 C 206.398 254.588, 208.619 250.971, 209.852 251.202 C 212.385 251.678, 217.585 262.412, 220.603 273.396 C 224.019 285.827, 226.389 290.764, 229.653 292.252 C 231.841 293.249, 232.424 293.141, 233.610 291.519 C 234.374 290.473, 235 288.579, 235 287.309 C 235 284.605, 235.674 284.505, 240.730 286.453 C 245.142 288.153, 254.974 290, 259.612 290 C 263.238 290, 266.406 287.501, 265.564 285.306 C 265.153 284.236, 265.537 284.036, 267.063 284.520 C 268.520 284.982, 269.794 284.435, 271.471 282.626 C 274.368 279.500, 278.120 278.466, 282.317 279.637 C 284.695 280.301, 286.068 281.660, 287.746 285.013 C 288.981 287.481, 290.893 290.247, 291.995 291.159 C 293.096 292.072, 294.372 293.830, 294.829 295.067 C 295.525 296.949, 295.848 296.380, 296.816 291.564 C 297.657 287.377, 297.673 285.258, 296.876 283.769 C 296.274 282.644, 294.737 277.818, 293.459 273.045 C 290.906 263.505, 286.816 253.559, 284.305 250.784 C 281.217 247.372, 279.345 248.586, 275.871 256.250 C 274.063 260.238, 270.681 267.249, 268.355 271.832 C 266.029 276.415, 264.387 280.844, 264.706 281.675 C 265.175 282.897, 264.541 282.815, 261.393 281.245 C 259.252 280.178, 254.575 278.717, 251 277.999 C 247.425 277.281, 244.340 276.565, 244.145 276.408 C 243.950 276.252, 245.491 274.633, 247.570 272.812 C 252.289 268.678, 257 261.380, 257 258.204 C 257 256.785, 255.551 254.351, 253.465 252.265 C 250.139 248.939, 249.640 248.764, 245.043 249.309 C 240.202 249.882, 231.123 253.798, 227.750 256.769 C 226.260 258.081, 225.988 260.253, 225.918 271.405 C 225.843 283.516, 225.732 284.260, 224.438 281.306 C 223.669 279.549, 222.118 274.670, 220.990 270.464 C 218.902 262.671, 215.005 253.900, 212.231 250.750 C 209.158 247.260, 207.655 248.663, 202.583 259.750 C 199.879 265.663, 196.776 272.010, 195.687 273.855 L 193.707 277.209 192.471 274.269 C 191.791 272.652, 189.738 270.157, 187.908 268.725 C 184.822 266.310, 184.695 265.989, 186.156 264.310 C 190.057 259.827, 189.115 252.285, 184.385 250.130 C 183.022 249.508, 181.590 249.052, 181.203 249.115 C 180.816 249.178, 178.700 249.625, 176.500 250.108 M 38 252.158 C 36.075 252.683, 33.431 253.375, 32.124 253.697 C 29.798 254.269, 24 259.536, 24 261.077 C 24 261.506, 24.755 262.612, 25.678 263.536 C 26.724 264.581, 27.825 268.475, 28.598 273.857 C 30.184 284.891, 31.030 288.318, 32.399 289.248 C 33.951 290.303, 38.327 289.218, 45.501 285.999 C 52.473 282.872, 56.354 278.807, 55.439 275.593 C 54.806 273.369, 50.168 268.572, 47.874 267.768 C 46.806 267.394, 47.002 266.595, 48.750 264.184 C 51.744 260.055, 51.757 254.643, 48.777 252.557 C 46.318 250.834, 43.274 250.721, 38 252.158 M 64.940 265.484 C 61.027 273.525, 58.076 280.755, 58.381 281.552 C 59.105 283.437, 61.902 283.419, 62.629 281.525 C 63.251 279.904, 68.464 277, 70.753 277 C 74.621 277, 79.268 280.459, 81.080 284.687 C 83.297 289.859, 86.961 291.911, 88.439 288.808 C 89.070 287.483, 88.979 286.196, 88.162 284.888 C 87.493 283.816, 85.875 278.941, 84.567 274.055 C 81.701 263.343, 76.173 251.624, 73.778 251.182 C 72.449 250.937, 70.428 254.208, 64.940 265.484 M 104 251.935 C 100.234 253.085, 93.504 256.680, 92.317 258.177 C 91.172 259.619, 89.813 284.571, 90.695 287.943 C 91.367 290.510, 95.827 291.856, 97.131 289.885 C 97.635 289.123, 97.872 287.477, 97.658 286.226 C 97.444 284.976, 97.579 283.760, 97.958 283.526 C 98.337 283.292, 101.539 284, 105.074 285.100 C 112.680 287.468, 126.401 288.778, 127.359 287.227 C 129.304 284.081, 124.827 281.731, 111.767 279.044 C 108.614 278.395, 105.799 277.484, 105.512 277.020 C 105.225 276.556, 106.850 274.703, 109.123 272.902 C 114.584 268.578, 119 262.355, 119 258.985 C 119 257.492, 118.067 255.084, 116.927 253.635 C 115.251 251.504, 114.056 251.016, 110.677 251.086 C 108.380 251.133, 105.375 251.515, 104 251.935 M 138.714 260.962 C 136.121 266.487, 134 271.239, 134 271.523 C 134 271.807, 132.848 273.865, 131.440 276.095 C 129.413 279.306, 129.126 280.447, 130.062 281.575 C 131.661 283.502, 133.289 283.368, 134.644 281.198 C 135.263 280.207, 137.558 278.806, 139.744 278.084 C 145.258 276.265, 150.025 278.512, 152.557 284.126 C 154.410 288.236, 157.664 291.326, 159.163 290.399 C 160.497 289.575, 160.148 286.334, 158.008 279.687 C 156.912 276.284, 155.308 271.025, 154.443 268 C 151.964 259.329, 147.801 251.543, 145.464 251.208 C 143.775 250.967, 142.623 252.632, 138.714 260.962 M 172.500 252.603 C 168.127 253.732, 165.594 255.104, 163.157 257.663 L 159.814 261.173 161.934 263.430 C 163.538 265.137, 164.144 267.280, 164.421 272.230 C 164.761 278.280, 166.143 284.351, 168.012 288 C 169.720 291.334, 184.100 286.637, 189.526 280.973 C 193.554 276.768, 192.466 273.567, 185.175 268.179 L 182.850 266.460 185.119 263.576 C 187.448 260.615, 188.080 254.680, 186.260 252.860 C 184.549 251.149, 178.565 251.038, 172.500 252.603 M 236.578 253.543 C 227.158 257.454, 227.175 257.423, 227.072 270.691 C 227.024 277.031, 226.723 283.255, 226.405 284.522 C 226.009 286.101, 226.503 287.503, 227.975 288.975 C 231.129 292.129, 233.437 291.245, 233.810 286.742 C 233.981 284.684, 234.333 283, 234.592 283 C 234.851 283, 237.861 283.943, 241.282 285.096 C 249.546 287.882, 263.273 288.316, 263.781 285.808 C 264.251 283.493, 260.245 281.618, 250.250 279.478 C 245.638 278.490, 242 277.196, 242 276.543 C 242 275.901, 243.302 274.414, 244.892 273.238 C 246.483 272.062, 249.483 269.027, 251.559 266.493 C 256.022 261.047, 256.449 257.172, 252.992 253.492 C 249.927 250.229, 244.520 250.246, 236.578 253.543 M 279 251.844 C 279 252.384, 276.075 258.895, 272.500 266.313 C 268.925 273.730, 266 280.239, 266 280.777 C 266 281.315, 266.634 282.282, 267.410 282.925 C 268.526 283.851, 269.133 283.648, 270.323 281.949 C 275.712 274.255, 286.619 276.775, 290.146 286.528 C 290.914 288.650, 292.147 289.986, 293.594 290.263 C 296.755 290.867, 297.188 288.208, 294.973 281.784 C 293.971 278.878, 291.995 272.675, 290.583 268 C 287.367 257.354, 284.167 251.604, 281.223 251.180 C 280 251.005, 279 251.303, 279 251.844 M 104.012 259.532 C 101.544 260.300, 98.957 261.706, 98.262 262.656 C 96.841 264.600, 96.529 272, 97.869 272 C 99.287 272, 108.622 264.227, 110.324 261.628 C 112.874 257.737, 111.374 257.239, 104.012 259.532 M 239.006 259.933 C 234.962 261.572, 234.429 262.179, 233.674 265.995 C 232.326 272.814, 234.053 273.139, 240.727 267.322 C 249.784 259.427, 248.962 255.898, 239.006 259.933 M 36.200 260.200 C 34.861 261.539, 34.563 265, 35.788 265 C 36.221 265, 38.134 263.668, 40.038 262.041 L 43.500 259.081 40.450 259.041 C 38.773 259.018, 36.860 259.540, 36.200 260.200 M 172.200 260.200 C 171.540 260.860, 171 262.222, 171 263.226 C 171 264.944, 171.181 264.958, 174.093 263.452 C 177.630 261.623, 177.390 260.245, 173.836 261.974 C 171.605 263.059, 171.588 263.040, 173.448 261.550 C 174.519 260.693, 176.206 260.248, 177.198 260.563 C 178.189 260.877, 179 260.654, 179 260.067 C 179 258.610, 173.687 258.713, 172.200 260.200 M 37.750 260.689 C 36.788 260.941, 36 261.579, 36 262.109 C 36 262.688, 36.795 262.645, 38 262 C 39.100 261.411, 40 260.720, 40 260.465 C 40 260.209, 39.888 260.052, 39.750 260.116 C 39.612 260.180, 38.712 260.438, 37.750 260.689 M 103.024 261.407 C 100.255 262.407, 99.407 263.356, 98.851 266.074 C 98.467 267.951, 98.333 269.666, 98.552 269.886 C 98.964 270.298, 110 261.175, 110 260.423 C 110 259.649, 106.543 260.137, 103.024 261.407 M 239 261.409 C 235.943 262.507, 235.460 263.145, 235.183 266.449 L 234.865 270.232 237.683 268.207 C 239.232 267.094, 241.822 264.792, 243.437 263.091 C 245.989 260.405, 246.120 260.010, 244.437 260.076 C 243.372 260.118, 240.925 260.718, 239 261.409 M 70.989 264.250 C 68.401 268.495, 68.479 270.627, 71.250 271.370 C 73.646 272.012, 78 272.213, 78 271.682 C 78 269.740, 74.683 261, 73.947 261 C 73.410 261, 72.079 262.462, 70.989 264.250 M 143.725 262.752 C 142.178 264.460, 139.668 270.032, 140.222 270.524 C 140.375 270.660, 142.412 271.087, 144.750 271.474 C 149.588 272.273, 149.876 271.657, 147.842 264.866 C 146.541 260.525, 145.994 260.244, 143.725 262.752 M 206.989 264.250 C 204.991 267.526, 204.363 270.968, 205.750 271.038 C 206.162 271.059, 208.248 271.328, 210.383 271.637 C 214.229 272.194, 214.260 272.171, 213.599 269.350 C 212.534 264.804, 210.832 261, 209.864 261 C 209.373 261, 208.079 262.462, 206.989 264.250 M 279.199 263.750 C 278.134 265.262, 276.961 267.470, 276.594 268.656 C 276.003 270.562, 276.404 270.892, 280.058 271.510 C 282.332 271.894, 284.548 271.824, 284.984 271.354 C 285.951 270.312, 283.301 261, 282.038 261 C 281.542 261, 280.265 262.238, 279.199 263.750 M 71.692 264.940 C 69.607 268.475, 69.978 269.571, 73.485 270.242 C 76.355 270.790, 76.682 269.301, 74.705 264.688 L 73.500 261.876 71.692 264.940 M 143.692 264.940 C 141.607 268.475, 141.978 269.571, 145.485 270.242 C 148.355 270.790, 148.682 269.301, 146.705 264.688 L 145.500 261.876 143.692 264.940 M 279.451 265.461 C 277.327 269.405, 277.370 269.498, 281.676 270.317 L 284.851 270.920 283.332 266.460 C 282.496 264.007, 281.700 262, 281.563 262 C 281.427 262, 280.476 263.557, 279.451 265.461 M 208.245 264.250 C 207.695 264.938, 206.934 266.512, 206.555 267.750 C 206 269.559, 206.254 270, 207.851 270 C 208.943 270, 210.509 270.258, 211.330 270.573 C 212.605 271.062, 212.672 270.547, 211.791 267.073 C 210.708 262.806, 209.909 262.170, 208.245 264.250 M 35.165 274.301 C 33.373 276.460, 34.717 281, 37.148 281 C 38.211 281, 40.920 280.061, 43.168 278.914 C 46.791 277.066, 47.087 276.659, 45.766 275.337 C 43.541 273.112, 36.707 272.444, 35.165 274.301 M 172.250 273.985 C 167.787 275.871, 170.709 281.671, 175.573 280.581 C 179.797 279.634, 183.783 276.392, 182.414 275.018 C 180.869 273.467, 174.908 272.861, 172.250 273.985 M 35.775 275.558 C 35.469 275.865, 35.453 277.015, 35.740 278.114 C 36.098 279.483, 36.773 279.906, 37.881 279.454 C 38.772 279.092, 40.737 278.348, 42.249 277.800 C 43.761 277.253, 44.747 276.399, 44.440 275.903 C 43.837 274.927, 36.691 274.642, 35.775 275.558 M 172 276.833 C 172 279.678, 172.821 279.910, 177.034 278.255 C 181.762 276.397, 181.293 275, 175.941 275 C 172.786 275, 172 275.366, 172 276.833 M 34.419 299.854 C 24.699 304.492, 21.132 311.075, 26.451 314.560 C 28.701 316.034, 29.540 316.035, 36.636 314.567 C 44.750 312.889, 46.659 313.348, 45.588 316.721 C 44.786 319.250, 38.015 323, 34.253 323 C 31.657 323, 31.336 322.696, 31.733 320.617 C 32.749 315.302, 26.912 317.229, 25.550 322.659 C 23.962 328.986, 29.115 331.512, 37.665 328.598 C 44.421 326.296, 48.652 323.106, 51.134 318.442 C 53.086 314.772, 53.159 314.102, 51.889 311.442 C 50.736 309.025, 49.773 308.441, 46.493 308.172 C 44.297 307.992, 39.869 308.360, 36.653 308.991 C 33.437 309.623, 30.583 309.916, 30.311 309.644 C 30.039 309.372, 31.591 307.975, 33.761 306.540 C 36.979 304.410, 38.426 304.044, 41.616 304.555 C 44.772 305.059, 45.879 304.791, 47.351 303.164 C 52.741 297.209, 44.424 295.079, 34.419 299.854 M 280.268 300.024 C 270.370 304.970, 267.138 311.078, 272.545 314.621 C 274.921 316.178, 275.595 316.178, 282.714 314.613 C 290.627 312.875, 292.478 313.281, 291.835 316.617 C 291.389 318.933, 284.374 322.962, 280.750 322.984 C 278.497 322.997, 278 322.559, 278 320.559 C 278 319.216, 277.522 317.822, 276.937 317.461 C 275.339 316.473, 272.203 319.799, 271.435 323.296 C 270.483 327.631, 273.902 330.411, 279.297 329.687 C 284.934 328.931, 293.630 324.328, 296.176 320.753 C 298.662 317.262, 299.086 312.013, 297.078 309.593 C 295.507 307.701, 289.423 307.501, 281.980 309.098 C 279.165 309.701, 276.627 309.960, 276.339 309.673 C 276.052 309.385, 277.591 307.975, 279.761 306.540 C 282.979 304.410, 284.426 304.044, 287.616 304.555 C 290.772 305.059, 291.879 304.791, 293.351 303.164 C 298.864 297.073, 290.292 295.015, 280.268 300.024 M 38.332 299.851 C 28.668 303.191, 22.941 309.370, 26.351 312.779 C 27.721 314.150, 28.931 314.183, 36.473 313.061 C 43.062 312.081, 45.367 312.059, 46.460 312.967 C 49.328 315.347, 45.011 321.067, 38.458 323.569 C 33.130 325.604, 30.500 325.168, 30.500 322.251 C 30.500 319.117, 28.742 319.231, 27.144 322.469 C 24.101 328.632, 32.021 330.252, 41.571 325.420 C 47.447 322.447, 51 318.018, 51 313.667 C 51 309.714, 48.624 309.053, 38.734 310.252 C 33.919 310.836, 29.663 310.996, 29.275 310.609 C 28.054 309.387, 30.517 306.652, 34.948 304.309 C 38.188 302.596, 39.679 302.293, 41.111 303.060 C 43.597 304.390, 47 302.602, 47 299.965 C 47 297.526, 45.131 297.502, 38.332 299.851 M 247.223 299.557 C 244.738 301.297, 244.117 306.724, 246.306 307.564 C 247.290 307.942, 247.509 310.234, 247.193 316.848 C 246.849 324.046, 247.069 325.927, 248.415 327.273 C 249.319 328.176, 250.760 328.646, 251.618 328.316 C 252.918 327.818, 253.122 326.091, 252.839 317.985 C 252.600 311.108, 252.867 307.910, 253.750 307.087 C 255.575 305.385, 255.277 301.561, 253.171 299.655 C 250.905 297.604, 250.030 297.590, 247.223 299.557 M 284.479 299.801 C 278.634 301.822, 273.459 305.273, 271.898 308.191 C 271.005 309.859, 271.187 310.631, 272.863 312.308 C 274.838 314.282, 275.274 314.316, 282.887 313.080 C 291.587 311.667, 293 311.987, 293 315.370 C 293 318.489, 289.932 321.479, 284.668 323.489 C 278.713 325.763, 276.414 325.235, 276.793 321.679 C 277.061 319.167, 276.916 319.036, 275.108 320.165 C 270.244 323.202, 272.208 328.010, 278.300 327.978 C 287.107 327.932, 297 320.703, 297 314.312 C 297 310.015, 294.937 309.091, 287.500 310.054 C 274.831 311.695, 272.888 311.101, 277.250 306.923 C 280.515 303.795, 285.042 302.066, 287.509 303.004 C 290.192 304.024, 293 302.462, 293 299.950 C 293 297.539, 291.117 297.506, 284.479 299.801 M 79.436 300.876 C 76.197 302.851, 70.649 310.798, 69.575 315 C 69.174 316.570, 69.742 316.012, 71.104 313.500 C 74.291 307.618, 78.797 302.199, 81.113 301.464 C 85.553 300.055, 88.036 301.804, 91.057 308.466 C 92.650 311.979, 94.316 315.077, 94.759 315.351 C 95.936 316.078, 96.213 327, 95.054 327 C 94.517 327, 93.592 325.200, 93 323 C 92.034 319.411, 91.600 319, 88.782 319 C 87.055 319, 84.159 319.536, 82.346 320.192 C 80.533 320.847, 78.731 321.065, 78.342 320.675 C 77.072 319.405, 79.727 317.793, 84.581 316.886 C 87.196 316.397, 89.550 315.783, 89.812 315.521 C 90.664 314.669, 86.983 306.295, 84.947 304.452 C 83.030 302.717, 82.875 302.746, 80.158 305.349 C 76.958 308.414, 72.985 315.381, 73.031 317.845 C 73.048 318.755, 74.126 317.330, 75.426 314.677 C 77.992 309.439, 81.684 305, 83.475 305 C 84.359 305, 89 312.893, 89 314.397 C 89 314.585, 86.890 314.978, 84.311 315.268 C 79.703 315.788, 77 317.804, 77 320.723 C 77 322.628, 79.949 323.513, 82.009 322.226 C 82.969 321.627, 85.355 320.836, 87.312 320.469 C 90.798 319.815, 90.892 319.884, 91.962 323.859 C 93.252 328.648, 94.638 329.791, 96.679 327.749 C 97.884 326.545, 97.963 325.525, 97.094 322.381 C 96.395 319.855, 96.366 318.384, 97.010 318.167 C 98.567 317.642, 98.165 314, 96.551 314 C 95.754 314, 93.744 311.154, 92.084 307.675 C 90.123 303.568, 88.161 300.939, 86.486 300.175 C 83.158 298.659, 83.055 298.669, 79.436 300.876 M 166.364 300.443 C 162.555 302.100, 157.461 309.259, 154.895 316.557 C 152.473 323.448, 152.483 326.653, 154.931 327.963 C 157.432 329.301, 160.347 326.670, 159.460 323.875 C 158.087 319.547, 165.727 305, 169.374 305 C 170.330 305, 175 312.799, 175 314.397 C 175 314.585, 172.975 314.968, 170.501 315.247 C 165.384 315.824, 163 317.383, 163 320.154 C 163 322.546, 165.705 323.665, 168.009 322.226 C 168.969 321.627, 171.355 320.836, 173.312 320.469 C 176.798 319.815, 176.892 319.884, 177.962 323.859 C 179.252 328.648, 180.638 329.791, 182.679 327.749 C 183.879 326.550, 183.962 325.521, 183.107 322.425 C 182.338 319.641, 182.355 318.398, 183.170 317.895 C 184.686 316.958, 183.443 314, 181.531 314 C 180.689 314, 180 313.413, 180 312.696 C 180 309.804, 174.844 301.250, 172.441 300.155 C 171.047 299.520, 169.815 299.018, 169.703 299.039 C 169.591 299.061, 168.089 299.692, 166.364 300.443 M 209.500 300.386 C 207.849 301.105, 205.882 302.437, 205.127 303.347 C 204.373 304.256, 203.144 305, 202.397 305 C 200.404 305, 199.878 308.358, 200.207 319 C 200.476 327.736, 200.661 328.500, 202.500 328.500 C 203.600 328.500, 204.914 327.558, 205.419 326.408 L 206.339 324.315 212.378 326.195 C 221.189 328.937, 229.244 329.615, 230.796 327.746 C 232.939 325.163, 231.183 323, 226.942 323 C 222.323 323, 212.994 321.103, 213.014 320.167 C 213.022 319.800, 215.256 318.272, 217.978 316.771 C 225.878 312.414, 228.675 306.400, 224.984 301.707 C 223.149 299.374, 222.139 299.005, 217.677 299.039 C 214.830 299.061, 211.150 299.667, 209.500 300.386 M 123.500 300.909 C 120.750 301.253, 118.004 301.851, 117.398 302.236 C 116.195 302.999, 114.736 313.275, 114.591 322 C 114.503 327.340, 114.584 327.510, 117.375 327.829 C 120.248 328.157, 120.250 328.153, 119.577 323.667 C 118.767 318.263, 119.162 317.926, 128 316.469 C 133.620 315.542, 134.545 315.088, 134.831 313.113 C 135.152 310.893, 134.964 310.839, 128.090 311.165 C 121.409 311.482, 121.053 311.390, 121.634 309.500 C 122.502 306.675, 122.424 306.712, 128.501 306.208 C 133.096 305.827, 134 306.019, 134 307.376 C 134 309.419, 137.331 309.511, 138.989 307.513 C 139.669 306.693, 139.954 304.952, 139.623 303.632 C 138.729 300.074, 135.077 299.457, 123.500 300.909 M 210.500 301.693 C 208.850 302.580, 206.037 304.415, 204.250 305.771 L 201 308.237 201 317.619 C 201 325.095, 201.291 327, 202.433 327 C 203.221 327, 204.165 326.056, 204.531 324.902 C 205.255 322.622, 205.224 322.621, 215.299 325.400 C 222.101 327.277, 230.350 327.550, 229.794 325.881 C 229.588 325.265, 227.638 324.614, 225.460 324.435 C 218.483 323.859, 210 321.762, 210.002 320.613 C 210.004 320.001, 212.497 318.198, 215.543 316.606 C 222.008 313.228, 225 309.848, 225 305.922 C 225 300.506, 217.031 298.182, 210.500 301.693 M 247.071 301.867 C 245.205 305.354, 247.961 308.720, 251.554 307.341 C 252.603 306.938, 253.009 305.730, 252.804 303.622 C 252.432 299.803, 248.775 298.683, 247.071 301.867 M 163.783 304.304 C 158.030 310.093, 152.864 322.927, 155.170 325.705 C 156.685 327.531, 158 326.330, 158 323.119 C 158 318.328, 161.024 311.230, 164.950 306.806 C 168.406 302.911, 168.895 302.667, 170.527 304.019 C 172.313 305.497, 175.936 312.524, 175.978 314.591 C 175.990 315.191, 173.533 316.234, 170.517 316.909 C 164.746 318.200, 163.074 319.474, 164.836 321.236 C 165.584 321.984, 166.576 321.857, 168.199 320.803 C 173.967 317.058, 177.974 318.316, 179.403 324.321 C 179.785 325.930, 180.595 326.950, 181.287 326.696 C 181.954 326.451, 182.344 325.631, 182.154 324.875 C 181.963 324.119, 181.718 321.857, 181.609 319.849 C 181.499 317.841, 180.959 315.591, 180.408 314.849 C 179.857 314.107, 178.322 311.104, 176.997 308.175 C 173.308 300.021, 169.228 298.826, 163.783 304.304 M 123.500 302.470 C 122.950 302.665, 121.215 303.110, 119.645 303.458 C 117.387 303.958, 116.901 304.515, 117.321 306.120 C 117.613 307.236, 117.210 310.612, 116.426 313.623 C 115.642 316.634, 115 320.909, 115 323.122 C 115 326.421, 115.316 327.084, 116.750 326.798 C 118.102 326.529, 118.429 325.634, 118.187 322.859 C 117.770 318.076, 119.679 316.361, 127.026 314.915 C 135.277 313.292, 134.817 311.538, 126.367 312.403 L 119.733 313.083 120.382 309.841 C 120.738 308.058, 121.586 306.246, 122.265 305.815 C 124.058 304.676, 133.772 304.823, 134.500 306 C 135.726 307.984, 138.149 307.071, 137.820 304.750 C 137.529 302.704, 136.911 302.483, 131 302.308 C 127.425 302.202, 124.050 302.275, 123.500 302.470 M 209.967 305.233 C 207.605 306.818, 206.063 308.930, 205.130 311.860 C 203.038 318.428, 204.570 319.134, 212.467 315.240 C 219.108 311.965, 222.421 308.446, 221.824 305.299 C 221.273 302.396, 214.254 302.357, 209.967 305.233 M 212.378 305.437 C 208.666 307.053, 206 310.544, 206 313.790 C 206 315.754, 206.366 316.026, 208.250 315.464 C 211.451 314.509, 218.427 310.396, 219.942 308.570 C 223.146 304.709, 218.486 302.779, 212.378 305.437 M 248.947 311.250 C 248.918 311.938, 248.650 315.102, 248.352 318.283 C 247.996 322.075, 248.226 324.567, 249.018 325.522 C 251.177 328.124, 252 326.032, 252 317.941 C 252 311.549, 251.707 310, 250.500 310 C 249.675 310, 248.976 310.563, 248.947 311.250 M 67.630 320.250 C 66.562 324.235, 66.957 326.908, 68.750 327.830 C 71.758 329.377, 73.010 328.106, 72.850 323.667 C 72.729 320.284, 72.620 320.064, 72.273 322.500 C 72.038 324.150, 71.412 325.946, 70.881 326.492 C 69.352 328.064, 68.109 325.101, 68.720 321.336 C 69.330 317.577, 68.554 316.804, 67.630 320.250" stroke="none" fill="#b19f77" fill-rule="evenodd"/><path d="M 258 2.690 C 243.551 5.103, 235.658 10.670, 229.914 22.500 C 225.124 32.367, 226.177 43.446, 233.240 57.500 C 237.244 65.467, 246.360 78.017, 254.354 86.568 L 260.834 93.500 266.018 88.500 C 273.352 81.427, 285.279 65.251, 289.445 56.730 C 296.617 42.059, 297.516 31.077, 292.349 21.268 C 287.324 11.729, 279.307 5.677, 268.673 3.395 C 262.254 2.017, 262.091 2.007, 258 2.690 M 249.960 19.258 C 243.990 22.825, 241.355 26.969, 240.405 34.284 C 239.064 44.598, 249.986 55.523, 261.471 55.357 C 270.568 55.225, 280.135 48.130, 281.576 40.446 C 284.086 27.069, 274.765 16, 260.994 16 C 256.475 16, 254.373 16.621, 249.960 19.258 M 73 75.608 C 60.986 77.046, 49.567 82.693, 40.663 91.597 C 32.623 99.636, 28.346 107.582, 26.344 118.199 C 24.620 127.340, 25.407 135.615, 29.156 147.765 C 34.555 165.259, 50.137 189.223, 69.487 209.793 C 80.168 221.147, 80.223 221.168, 85.708 215.846 C 90.179 211.509, 101.779 198.075, 107.595 190.500 C 124.449 168.550, 134.345 147.413, 135.629 130.625 C 137.817 102.021, 114.805 76.909, 85.186 75.579 C 80.409 75.364, 74.925 75.377, 73 75.608 M 227.500 82.116 C 224.527 83.051, 215.216 85.512, 188.842 92.333 C 181.331 94.276, 173.292 96.831, 170.979 98.011 C 160.772 103.218, 153.975 114.680, 155.412 124.261 C 155.948 127.834, 157.169 130.084, 160.713 134.026 C 165.022 138.818, 195.736 166.054, 208 175.957 C 211.025 178.400, 215.863 182.725, 218.750 185.569 C 223.372 190.120, 224 191.224, 224 194.797 C 224 197.990, 223.438 199.297, 221.365 200.927 C 218.778 202.963, 217.813 203, 167.591 203 L 116.451 203 109.975 210.586 C 106.414 214.758, 103.350 218.583, 103.167 219.086 C 102.968 219.632, 127.703 220, 164.557 220 L 226.281 220 230.808 217.750 C 240.819 212.774, 246.550 200.643, 243.974 189.878 C 242.149 182.248, 239.084 178.176, 229.182 170.228 C 185.644 135.277, 177.029 127.965, 176.391 125.421 C 175.539 122.026, 177.759 117.171, 180.891 115.581 C 182.326 114.853, 194.750 111.228, 208.500 107.526 C 243.314 98.152, 243.893 97.982, 244.547 96.925 C 245.398 95.547, 233.002 80.856, 231.182 81.086 C 230.807 81.133, 229.150 81.597, 227.500 82.116 M 68.778 98.890 C 55.327 104.289, 47.706 114.817, 47.706 128 C 47.706 139.609, 54.658 150.229, 65.858 155.730 C 70.766 158.139, 72.672 158.498, 80.500 158.485 C 91.733 158.465, 97.835 156.021, 104.534 148.860 C 110.811 142.149, 113.364 136.130, 113.381 128 C 113.407 115.961, 106.551 105.472, 95.209 100.197 C 87.622 96.668, 75.775 96.082, 68.778 98.890 M 38 252.158 C 36.075 252.683, 33.431 253.375, 32.124 253.697 C 29.798 254.269, 24 259.536, 24 261.077 C 24 261.506, 24.755 262.612, 25.678 263.536 C 26.724 264.581, 27.825 268.475, 28.598 273.857 C 30.184 284.891, 31.030 288.318, 32.399 289.248 C 33.951 290.303, 38.327 289.218, 45.501 285.999 C 52.473 282.872, 56.354 278.807, 55.439 275.593 C 54.806 273.369, 50.168 268.572, 47.874 267.768 C 46.806 267.394, 47.002 266.595, 48.750 264.184 C 51.744 260.055, 51.757 254.643, 48.777 252.557 C 46.318 250.834, 43.274 250.721, 38 252.158 M 64.940 265.484 C 61.027 273.525, 58.076 280.755, 58.381 281.552 C 59.105 283.437, 61.902 283.419, 62.629 281.525 C 63.251 279.904, 68.464 277, 70.753 277 C 74.621 277, 79.268 280.459, 81.080 284.687 C 83.297 289.859, 86.961 291.911, 88.439 288.808 C 89.070 287.483, 88.979 286.196, 88.162 284.888 C 87.493 283.816, 85.875 278.941, 84.567 274.055 C 81.701 263.343, 76.173 251.624, 73.778 251.182 C 72.449 250.937, 70.428 254.208, 64.940 265.484 M 104 251.935 C 100.234 253.085, 93.504 256.680, 92.317 258.177 C 91.172 259.619, 89.813 284.571, 90.695 287.943 C 91.367 290.510, 95.827 291.856, 97.131 289.885 C 97.635 289.123, 97.872 287.477, 97.658 286.226 C 97.444 284.976, 97.579 283.760, 97.958 283.526 C 98.337 283.292, 101.539 284, 105.074 285.100 C 112.680 287.468, 126.401 288.778, 127.359 287.227 C 129.304 284.081, 124.827 281.731, 111.767 279.044 C 108.614 278.395, 105.799 277.484, 105.512 277.020 C 105.225 276.556, 106.850 274.703, 109.123 272.902 C 114.584 268.578, 119 262.355, 119 258.985 C 119 257.492, 118.067 255.084, 116.927 253.635 C 115.251 251.504, 114.056 251.016, 110.677 251.086 C 108.380 251.133, 105.375 251.515, 104 251.935 M 138.714 260.962 C 136.121 266.487, 134 271.239, 134 271.523 C 134 271.807, 132.848 273.865, 131.440 276.095 C 129.413 279.306, 129.126 280.447, 130.062 281.575 C 131.661 283.502, 133.289 283.368, 134.644 281.198 C 135.263 280.207, 137.558 278.806, 139.744 278.084 C 145.258 276.265, 150.025 278.512, 152.557 284.126 C 154.410 288.236, 157.664 291.326, 159.163 290.399 C 160.497 289.575, 160.148 286.334, 158.008 279.687 C 156.912 276.284, 155.308 271.025, 154.443 268 C 151.964 259.329, 147.801 251.543, 145.464 251.208 C 143.775 250.967, 142.623 252.632, 138.714 260.962 M 172.500 252.603 C 168.127 253.732, 165.594 255.104, 163.157 257.663 L 159.814 261.173 161.934 263.430 C 163.538 265.137, 164.144 267.280, 164.421 272.230 C 164.761 278.280, 166.143 284.351, 168.012 288 C 169.720 291.334, 184.100 286.637, 189.526 280.973 C 193.554 276.768, 192.466 273.567, 185.175 268.179 L 182.850 266.460 185.119 263.576 C 187.448 260.615, 188.080 254.680, 186.260 252.860 C 184.549 251.149, 178.565 251.038, 172.500 252.603 M 201.038 265.560 C 197.098 273.627, 194.113 280.851, 194.405 281.614 C 195.091 283.401, 197.906 283.409, 198.590 281.625 C 198.880 280.869, 200.848 279.470, 202.964 278.516 C 209.530 275.555, 214.412 278.204, 218.910 287.166 C 220.187 289.711, 223.258 291.409, 224.442 290.225 C 225.303 289.364, 225.102 285.513, 224.141 284.450 C 223.668 283.928, 222.067 279, 220.583 273.500 C 217.608 262.477, 212.413 251.683, 209.852 251.202 C 208.619 250.971, 206.398 254.588, 201.038 265.560 M 236.578 253.543 C 227.158 257.454, 227.175 257.423, 227.072 270.691 C 227.024 277.031, 226.723 283.255, 226.405 284.522 C 226.009 286.101, 226.503 287.503, 227.975 288.975 C 231.129 292.129, 233.437 291.245, 233.810 286.742 C 233.981 284.684, 234.333 283, 234.592 283 C 234.851 283, 237.861 283.943, 241.282 285.096 C 249.546 287.882, 263.273 288.316, 263.781 285.808 C 264.251 283.493, 260.245 281.618, 250.250 279.478 C 245.638 278.490, 242 277.196, 242 276.543 C 242 275.901, 243.302 274.414, 244.892 273.238 C 246.483 272.062, 249.483 269.027, 251.559 266.493 C 256.022 261.047, 256.449 257.172, 252.992 253.492 C 249.927 250.229, 244.520 250.246, 236.578 253.543 M 279 251.844 C 279 252.384, 276.075 258.895, 272.500 266.313 C 268.925 273.730, 266 280.239, 266 280.777 C 266 281.315, 266.634 282.282, 267.410 282.925 C 268.526 283.851, 269.133 283.648, 270.323 281.949 C 275.712 274.255, 286.619 276.775, 290.146 286.528 C 290.914 288.650, 292.147 289.986, 293.594 290.263 C 296.755 290.867, 297.188 288.208, 294.973 281.784 C 293.971 278.878, 291.995 272.675, 290.583 268 C 287.367 257.354, 284.167 251.604, 281.223 251.180 C 280 251.005, 279 251.303, 279 251.844 M 104.012 259.532 C 101.544 260.300, 98.957 261.706, 98.262 262.656 C 96.841 264.600, 96.529 272, 97.869 272 C 99.287 272, 108.622 264.227, 110.324 261.628 C 112.874 257.737, 111.374 257.239, 104.012 259.532 M 239.006 259.933 C 234.962 261.572, 234.429 262.179, 233.674 265.995 C 232.326 272.814, 234.053 273.139, 240.727 267.322 C 249.784 259.427, 248.962 255.898, 239.006 259.933 M 36.200 260.200 C 34.861 261.539, 34.563 265, 35.788 265 C 36.221 265, 38.134 263.668, 40.038 262.041 L 43.500 259.081 40.450 259.041 C 38.773 259.018, 36.860 259.540, 36.200 260.200 M 172.200 260.200 C 171.540 260.860, 171 262.239, 171 263.264 C 171 265.019, 171.235 264.996, 175 262.880 C 177.200 261.643, 179 260.265, 179 259.816 C 179 258.548, 173.544 258.856, 172.200 260.200 M 70.989 264.250 C 68.401 268.495, 68.479 270.627, 71.250 271.370 C 73.646 272.012, 78 272.213, 78 271.682 C 78 269.740, 74.683 261, 73.947 261 C 73.410 261, 72.079 262.462, 70.989 264.250 M 143.725 262.752 C 142.178 264.460, 139.668 270.032, 140.222 270.524 C 140.375 270.660, 142.412 271.087, 144.750 271.474 C 149.588 272.273, 149.876 271.657, 147.842 264.866 C 146.541 260.525, 145.994 260.244, 143.725 262.752 M 206.989 264.250 C 204.991 267.526, 204.363 270.968, 205.750 271.038 C 206.162 271.059, 208.248 271.328, 210.383 271.637 C 214.229 272.194, 214.260 272.171, 213.599 269.350 C 212.534 264.804, 210.832 261, 209.864 261 C 209.373 261, 208.079 262.462, 206.989 264.250 M 279.199 263.750 C 278.134 265.262, 276.961 267.470, 276.594 268.656 C 276.003 270.562, 276.404 270.892, 280.058 271.510 C 282.332 271.894, 284.548 271.824, 284.984 271.354 C 285.951 270.312, 283.301 261, 282.038 261 C 281.542 261, 280.265 262.238, 279.199 263.750 M 35.165 274.301 C 33.373 276.460, 34.717 281, 37.148 281 C 38.211 281, 40.920 280.061, 43.168 278.914 C 46.791 277.066, 47.087 276.659, 45.766 275.337 C 43.541 273.112, 36.707 272.444, 35.165 274.301 M 172.250 273.985 C 167.787 275.871, 170.709 281.671, 175.573 280.581 C 179.797 279.634, 183.783 276.392, 182.414 275.018 C 180.869 273.467, 174.908 272.861, 172.250 273.985 M 38.332 299.851 C 28.668 303.191, 22.941 309.370, 26.351 312.779 C 27.721 314.150, 28.931 314.183, 36.473 313.061 C 43.062 312.081, 45.367 312.059, 46.460 312.967 C 49.328 315.347, 45.011 321.067, 38.458 323.569 C 33.130 325.604, 30.500 325.168, 30.500 322.251 C 30.500 319.117, 28.742 319.231, 27.144 322.469 C 24.101 328.632, 32.021 330.252, 41.571 325.420 C 47.447 322.447, 51 318.018, 51 313.667 C 51 309.714, 48.624 309.053, 38.734 310.252 C 33.919 310.836, 29.663 310.996, 29.275 310.609 C 28.054 309.387, 30.517 306.652, 34.948 304.309 C 38.188 302.596, 39.679 302.293, 41.111 303.060 C 43.597 304.390, 47 302.602, 47 299.965 C 47 297.526, 45.131 297.502, 38.332 299.851 M 284.479 299.801 C 278.634 301.822, 273.459 305.273, 271.898 308.191 C 271.005 309.859, 271.187 310.631, 272.863 312.308 C 274.838 314.282, 275.274 314.316, 282.887 313.080 C 291.587 311.667, 293 311.987, 293 315.370 C 293 318.489, 289.932 321.479, 284.668 323.489 C 278.713 325.763, 276.414 325.235, 276.793 321.679 C 277.061 319.167, 276.916 319.036, 275.108 320.165 C 270.244 323.202, 272.208 328.010, 278.300 327.978 C 287.107 327.932, 297 320.703, 297 314.312 C 297 310.015, 294.937 309.091, 287.500 310.054 C 274.831 311.695, 272.888 311.101, 277.250 306.923 C 280.515 303.795, 285.042 302.066, 287.509 303.004 C 290.192 304.024, 293 302.462, 293 299.950 C 293 297.539, 291.117 297.506, 284.479 299.801 M 210.500 301.693 C 208.850 302.580, 206.037 304.415, 204.250 305.771 L 201 308.237 201 317.619 C 201 325.095, 201.291 327, 202.433 327 C 203.221 327, 204.165 326.056, 204.531 324.902 C 205.255 322.622, 205.224 322.621, 215.299 325.400 C 222.101 327.277, 230.350 327.550, 229.794 325.881 C 229.588 325.265, 227.638 324.614, 225.460 324.435 C 218.483 323.859, 210 321.762, 210.002 320.613 C 210.004 320.001, 212.497 318.198, 215.543 316.606 C 222.008 313.228, 225 309.848, 225 305.922 C 225 300.506, 217.031 298.182, 210.500 301.693 M 247.071 301.867 C 245.205 305.354, 247.961 308.720, 251.554 307.341 C 252.603 306.938, 253.009 305.730, 252.804 303.622 C 252.432 299.803, 248.775 298.683, 247.071 301.867 M 77.327 304.615 C 71.390 310.910, 66.850 322.521, 68.978 325.964 C 70.352 328.187, 71.710 326.240, 72.397 321.062 C 73.167 315.260, 76.180 309.160, 80.158 305.349 C 82.875 302.746, 83.030 302.717, 84.947 304.452 C 86.983 306.295, 90.664 314.669, 89.812 315.521 C 89.550 315.783, 87.196 316.397, 84.581 316.886 C 79.727 317.793, 77.072 319.405, 78.342 320.675 C 78.731 321.065, 80.533 320.847, 82.346 320.192 C 84.159 319.536, 87.055 319, 88.782 319 C 91.600 319, 92.034 319.411, 93 323 C 93.592 325.200, 94.517 327, 95.054 327 C 96.231 327, 95.926 316.073, 94.729 315.332 C 94.269 315.048, 92.777 312.270, 91.413 309.158 C 87.331 299.847, 83.108 298.485, 77.327 304.615 M 163.783 304.304 C 158.030 310.093, 152.864 322.927, 155.170 325.705 C 156.685 327.531, 158 326.330, 158 323.119 C 158 318.328, 161.024 311.230, 164.950 306.806 C 168.406 302.911, 168.895 302.667, 170.527 304.019 C 172.313 305.497, 175.936 312.524, 175.978 314.591 C 175.990 315.191, 173.533 316.234, 170.517 316.909 C 164.746 318.200, 163.074 319.474, 164.836 321.236 C 165.584 321.984, 166.576 321.857, 168.199 320.803 C 173.967 317.058, 177.974 318.316, 179.403 324.321 C 179.785 325.930, 180.595 326.950, 181.287 326.696 C 181.954 326.451, 182.344 325.631, 182.154 324.875 C 181.963 324.119, 181.718 321.857, 181.609 319.849 C 181.499 317.841, 180.959 315.591, 180.408 314.849 C 179.857 314.107, 178.322 311.104, 176.997 308.175 C 173.308 300.021, 169.228 298.826, 163.783 304.304 M 123.500 302.470 C 122.950 302.665, 121.215 303.110, 119.645 303.458 C 117.387 303.958, 116.901 304.515, 117.321 306.120 C 117.613 307.236, 117.210 310.612, 116.426 313.623 C 115.642 316.634, 115 320.909, 115 323.122 C 115 326.421, 115.316 327.084, 116.750 326.798 C 118.102 326.529, 118.429 325.634, 118.187 322.859 C 117.770 318.076, 119.679 316.361, 127.026 314.915 C 135.277 313.292, 134.817 311.538, 126.367 312.403 L 119.733 313.083 120.382 309.841 C 120.738 308.058, 121.586 306.246, 122.265 305.815 C 124.058 304.676, 133.772 304.823, 134.500 306 C 135.726 307.984, 138.149 307.071, 137.820 304.750 C 137.529 302.704, 136.911 302.483, 131 302.308 C 127.425 302.202, 124.050 302.275, 123.500 302.470 M 209.967 305.233 C 207.605 306.818, 206.063 308.930, 205.130 311.860 C 203.038 318.428, 204.570 319.134, 212.467 315.240 C 219.108 311.965, 222.421 308.446, 221.824 305.299 C 221.273 302.396, 214.254 302.357, 209.967 305.233 M 248.947 311.250 C 248.918 311.938, 248.650 315.102, 248.352 318.283 C 247.996 322.075, 248.226 324.567, 249.018 325.522 C 251.177 328.124, 252 326.032, 252 317.941 C 252 311.549, 251.707 310, 250.500 310 C 249.675 310, 248.976 310.563, 248.947 311.250" stroke="none" fill="#c6962e" fill-rule="evenodd"/></svg>